<svg width="60" height="60" viewBox="0 0 60 60" fill="none" xmlns="http://www.w3.org/2000/svg">
<path d="M20.3029 13.7759C21.5133 13.2956 22.9246 13 24.8448 13C34.931 13 52 16.9763 52 40.5431C52 43.7575 49.3954 46.3621 46.181 46.3621C42.9666 46.3621 40.3621 43.7575 40.3621 40.5431C40.3621 26.9655 26.3966 22.3103 16.3103 22.3103C6.98603 22.3103 7 29.2931 7 30.4569C7 33.084 8.74026 35.3037 11.1307 36.0276L31.826 42.2841" stroke="black" stroke-width="2" stroke-miterlimit="10"/>
<path d="M34.9341 43.2238L33.3723 42.7521" stroke="black" stroke-width="2" stroke-miterlimit="10"/>
<path d="M44.4943 46.1137L36.4819 43.6923" stroke="black" stroke-width="2" stroke-miterlimit="10"/>
<path d="M21.7399 35.604L11.6685 32.5587" stroke="black" stroke-width="2" stroke-miterlimit="10"/>
<path d="M24.8465 36.5428L23.2893 36.0719" stroke="black" stroke-width="2" stroke-miterlimit="10"/>
<path d="M27.9483 37.4808L26.3943 37.0106" stroke="black" stroke-width="2" stroke-miterlimit="10"/>
<path d="M10.188 17.0439C10.5627 16.9368 10.8583 16.8794 11.2672 16.8794C12.9935 16.8794 14.4801 17.9043 15.1527 19.3792" stroke="black" stroke-width="2" stroke-miterlimit="10"/>
<path d="M7.3291 19.1434C7.52927 18.5646 7.94048 18.1285 8.47039 17.9609" stroke="black" stroke-width="2" stroke-miterlimit="10"/>
<path d="M9.05448 24.7963C7.82319 24.0475 7 22.6929 7 21.1466C7 21.0163 7 20.92 7 20.7587" stroke="black" stroke-width="2" stroke-miterlimit="10"/>
<path d="M24.0513 23.1886C24.0629 23.0466 24.0691 22.9038 24.0691 22.7587C24.0691 19.94 21.7842 17.6559 18.9655 17.6559C16.236 17.6559 14.007 19.798 13.8696 22.4926" stroke="black" stroke-width="2" stroke-miterlimit="10"/>
<path d="M12.4358 17.0438C12.4327 16.9903 12.4312 16.9344 12.4312 16.8793C12.4312 15.1654 13.8207 13.7759 15.5346 13.7759C16.7162 13.7759 17.6884 14.2965 18.1648 15.2267" stroke="black" stroke-width="2" stroke-miterlimit="10"/>
<path d="M32.7565 19.2108C33.1529 19.8959 33.3795 20.6912 33.3795 21.5392C33.3795 23.3229 32.3779 24.8723 30.9053 25.6559" stroke="black" stroke-width="2" stroke-miterlimit="10"/>
<path d="M30.3396 17.2107C30.9192 17.4155 31.3808 17.6669 31.8293 18.0688" stroke="black" stroke-width="2" stroke-miterlimit="10"/>
<path d="M24.8447 18.9502C25.6803 17.7018 27.104 16.8794 28.7194 16.8794" stroke="black" stroke-width="2" stroke-miterlimit="10"/>
<path d="M33.3608 21.9605C33.8209 21.6897 34.3586 21.5345 34.9312 21.5345C36.6451 21.5345 38.0346 22.9241 38.0346 24.638" stroke="black" stroke-width="2" stroke-miterlimit="10"/>
<path d="M35.7053 25.69C36.2733 25.0445 37.1073 24.6379 38.0345 24.6379C39.7483 24.6379 41.1379 26.0275 41.1379 27.7414C41.1379 29.4553 39.7483 30.8448 38.0345 30.8448H37.2477" stroke="black" stroke-width="2" stroke-miterlimit="10"/>
<path d="M45.7933 27.7413C45.7933 28.4388 45.5628 29.0828 45.1733 29.6018" stroke="black" stroke-width="2" stroke-miterlimit="10"/>
<path d="M42.6897 24.6379C43.838 24.6379 44.8396 25.2617 45.3781 26.1881" stroke="black" stroke-width="2" stroke-miterlimit="10"/>
<path d="M40.2551 38.5398L46.4845 40.0978C46.6358 40.1358 46.7933 40.1552 46.957 40.1552C48.0285 40.1552 48.8967 39.287 48.8967 38.2155C48.8967 37.3225 48.2923 36.5699 47.4706 36.3449L44.1189 35.4317C43.295 35.2075 42.6898 34.4542 42.6898 33.5604C42.6898 33.1236 42.8341 32.7217 43.0769 32.3973L44.2415 30.8448" stroke="black" stroke-width="2" stroke-miterlimit="10"/>
<path d="M26.1157 17.6715C25.6828 16.7452 24.7432 16.1035 23.6539 16.1035C22.4055 16.1035 21.3535 16.9461 21.0361 18.0936" stroke="black" stroke-width="2" stroke-miterlimit="10"/>
</svg>
