<svg width="60" height="60" viewBox="0 0 60 60" fill="none" xmlns="http://www.w3.org/2000/svg">
<path d="M50.3333 33.1617H8.66667C7.74583 33.1617 7 32.4159 7 31.495C7 30.6967 7.74583 29.8284 8.66667 29.8284H50.3333C51.2542 29.8284 52 30.4884 52 31.495C52 32.4159 51.2542 33.1617 50.3333 33.1617Z" stroke="black" stroke-width="2" stroke-miterlimit="10"/>
<path d="M13.6667 29.8285C12.2859 29.8285 11.1667 28.5785 11.1667 27.3285C11.1667 24.1068 13.7784 21.4951 17.0001 21.4951H42.0001C45.2217 21.4951 47.8334 24.1068 47.8334 27.3285C47.8334 28.3351 46.7142 29.8285 45.3334 29.8285" stroke="black" stroke-width="2" stroke-miterlimit="10"/>
<path d="M23.1767 18.5034L23.855 17.825C24.2683 17.4125 24.5 16.8517 24.5 16.2675C24.5 15.3192 23.8933 14.4775 22.9942 14.1775L22.3358 13.9584C20.6425 13.3942 19.5 11.8092 19.5 10.0242C19.5 9.2542 19.7142 8.50004 20.1192 7.84504L20.4383 7.32837" stroke="black" stroke-width="2" stroke-miterlimit="10"/>
<path d="M32.0726 16.8168L32.8263 16.5382C33.2851 16.3692 33.7191 16.0116 34.0324 15.5458C34.541 14.7897 34.6438 13.8841 34.2879 13.2972L34.027 12.8679C33.3564 11.7634 33.5498 10.0579 34.5072 8.63476C34.9202 8.02083 35.4478 7.50233 36.0319 7.13669L36.4924 6.84815" stroke="black" stroke-width="2" stroke-miterlimit="10"/>
<path d="M29.5 18.9951V20.6618" stroke="black" stroke-width="2" stroke-miterlimit="10"/>
<path d="M27.8334 13.995V13.5067C27.8334 12.7525 27.5334 12.0283 27.0001 11.495C26.4667 10.9617 26.1667 10.2375 26.1667 9.48333C26.1667 8.6375 26.5026 7.82583 27.1009 7.2275L28.3284 6" stroke="black" stroke-width="2" stroke-miterlimit="10"/>
<path d="M23.2483 33.1616H23.25C23.5716 33.1616 23.8758 33.235 24.1475 33.365C26.41 34.6725 29.1691 37.5666 30.7783 41.8941" stroke="black" stroke-width="2" stroke-miterlimit="10"/>
<path d="M34.9167 53.5525C34.9167 53.5525 25.5092 45.9133 24.2292 44.7825C24.2292 44.7825 17.6125 38.8916 15.2825 36.8725C14.8208 36.4725 14.5 35.9033 14.5 35.245C14.5 34.0941 15.4325 33.1616 16.5833 33.1616C17.1875 33.1616 17.6767 33.4766 18.1117 33.8291C21.1667 36.3058 29.2567 42.3283 32.8333 42.3283C37.3475 42.3283 39.0342 38.1616 39.5 37.3283C40.2117 36.055 41.2492 33.1616 43.6667 33.1616C45.0208 33.1616 45.3333 34.36 45.3333 34.8283C45.3333 37.5366 42.8333 39.5416 42.8333 43.995C42.8333 43.995 42.5783 47.0041 42 48.1616L44.1875 50.3491" stroke="black" stroke-width="2" stroke-miterlimit="10"/>
</svg>
