<svg width="60" height="60" viewBox="0 0 60 60" fill="none" xmlns="http://www.w3.org/2000/svg">
<path d="M14.1053 40.3429C10.9351 40.8967 9 41.6348 9 42.4444C9 44.1625 17.7057 45.5556 28.4445 45.5556C39.1832 45.5556 47.8889 44.1625 47.8889 42.4444C47.8889 41.4567 45.0158 40.5762 40.5288 40.0061" stroke="black" stroke-width="2" stroke-miterlimit="10"/>
<path d="M9 42.4445C9 46.7401 17.7057 50.2222 28.4445 50.2222C39.1832 50.2222 47.8889 46.7401 47.8889 42.4445" stroke="black" stroke-width="2" stroke-miterlimit="10"/>
<path d="M24.5564 16.2754C19.9691 16.7631 16.7778 17.8496 16.7778 19.1112C16.7778 20.8293 22.6975 22.2223 30.0001 22.2223C37.3026 22.2223 43.2223 20.8293 43.2223 19.1112C43.2223 18.2502 41.7367 17.4716 39.3357 16.9077" stroke="black" stroke-width="2" stroke-miterlimit="10"/>
<path d="M38.6271 45.0952C41.4286 39.1289 43.2222 29.7279 43.2222 19.1112" stroke="black" stroke-width="2" stroke-miterlimit="10"/>
<path d="M18.3303 35.4049C17.3371 30.599 16.7778 25.0628 16.7778 19.1112" stroke="black" stroke-width="2" stroke-miterlimit="10"/>
<path d="M25.3271 45.5159C25.2143 44.8034 23.4495 34.6666 14.4444 34.6666C13.8898 35.824 13.6666 36.923 13.6666 37.9418C13.6666 42.005 17.2926 44.8065 17.5555 45.022" stroke="black" stroke-width="2" stroke-miterlimit="10"/>
<path d="M17.9888 39.5309C17.9888 39.5309 19.4953 43.0286 22.5917 45.4156" stroke="black" stroke-width="2" stroke-miterlimit="10"/>
<path d="M22.2728 38.4529C22.6236 37.7669 24.8698 33.8889 30.7778 33.8889C30.7778 38.9981 30.0055 42.0813 25.3847 45.5175" stroke="black" stroke-width="2" stroke-miterlimit="10"/>
<path d="M24.1643 41.6668C25.7362 40.1758 27.2848 38.0975 27.2848 38.0975" stroke="black" stroke-width="2" stroke-miterlimit="10"/>
<path d="M41.2871 37.1579C44.4146 37.1579 51 34.2778 51 27.2778C51 24.9149 49.0851 23 46.7222 23C45.1457 23 43.7682 23.8532 43.0262 25.1226" stroke="black" stroke-width="2" stroke-miterlimit="10"/>
<path d="M37.7778 14.4444C38.6373 14.4444 39.3334 13.7483 39.3334 12.8889C39.3334 12.0294 38.6373 11.3333 37.7778 11.3333H34.6667C33.3779 11.3333 32.3334 10.2888 32.3334 9" stroke="black" stroke-width="2" stroke-miterlimit="10"/>
<path d="M34.6666 14.4443H36.2222" stroke="black" stroke-width="2" stroke-miterlimit="10"/>
<path d="M30.7777 18.3332V16.7777C30.7777 15.4889 31.8223 14.4443 33.111 14.4443" stroke="black" stroke-width="2" stroke-miterlimit="10"/>
<path d="M27.9802 15.7931L27.1923 14.2399C26.5288 12.934 25.1887 12.1111 23.7242 12.1111H18.3334C17.4739 12.1111 16.7778 11.415 16.7778 10.5556C16.7778 9.69611 17.4739 9 18.3334 9H21.4445" stroke="black" stroke-width="2" stroke-miterlimit="10"/>
<path d="M36.7357 41.5478C37.9156 38.362 38.8225 34.442 39.3981 30.1323" stroke="black" stroke-width="2" stroke-miterlimit="10"/>
</svg>
