<svg width="60" height="60" viewBox="0 0 60 60" fill="none" xmlns="http://www.w3.org/2000/svg">
<path d="M41.7954 39.9322C47.9396 40.9369 52 42.672 52 44.6442C52 47.7509 41.9261 50.2692 29.5 50.2692C17.0739 50.2692 7 47.7509 7 44.6442C7 41.9243 14.721 39.6553 24.9827 39.1326" stroke="black" stroke-width="2" stroke-miterlimit="10"/>
<path d="M51.8277 45.3435L50.0831 48.8622C48.7201 51.6106 40.0239 53.7308 29.4999 53.7308C18.9777 53.7308 10.284 51.6115 8.9176 48.8639L7.17212 45.3435" stroke="black" stroke-width="2" stroke-miterlimit="10"/>
<path d="M25.8871 28.5333C24.8011 30.1594 22.9483 31.2307 20.8463 31.2307C17.5007 31.2307 14.7886 28.5186 14.7886 25.173C14.7886 23.9295 15.1633 22.7742 15.8063 21.8127L25.8871 28.5333Z" stroke="black" stroke-width="2" stroke-miterlimit="10"/>
<path d="M37.1439 22.191C36.9882 22.4238 36.7233 22.5769 36.4231 22.5769C36.1851 22.5769 35.9696 22.4809 35.813 22.3251L34.0822 20.5943C33.9247 20.4377 33.8269 20.2205 33.8269 19.9808C33.8269 19.6822 33.9783 19.4192 34.2085 19.2634L36.2846 17.6044L34.9441 16.264C34.7883 16.1073 34.6923 15.8918 34.6923 15.6539C34.6923 15.4107 34.7927 15.1909 34.9545 15.0334C35.6408 14.348 36.6706 13.9231 38.1538 13.9231C40.5432 13.9231 42.4808 15.8607 42.4808 18.25C42.4808 19.7411 42.0325 20.7717 41.3687 21.4519C41.2112 21.612 40.9923 21.7116 40.75 21.7116C40.5111 21.7116 40.2957 21.6155 40.139 21.4589L38.7994 20.1192L37.1439 22.191Z" stroke="black" stroke-width="2" stroke-miterlimit="10"/>
<path d="M34.6672 32.0962C37.4174 32.0962 39.1871 34.2709 39.0062 37.1864C38.7743 40.9508 35.4962 44.2116 32.1212 44.2116C29.3711 44.2116 27.6013 42.0369 27.7822 39.1214C28.0141 35.357 31.2922 32.0962 34.6672 32.0962Z" stroke="black" stroke-width="2" stroke-miterlimit="10"/>
<path d="M45.9424 11.3269V17.3846" stroke="black" stroke-width="2" stroke-miterlimit="10"/>
<path d="M48.5386 28.6345V33.8268" stroke="black" stroke-width="2" stroke-miterlimit="10"/>
<path d="M48.5386 24.3076V26.0384" stroke="black" stroke-width="2" stroke-miterlimit="10"/>
<path d="M7.86548 25.1731V32.9616" stroke="black" stroke-width="2" stroke-miterlimit="10"/>
<path d="M7.86548 34.6924V36.4232" stroke="black" stroke-width="2" stroke-miterlimit="10"/>
<path d="M13.9231 7V13.9231" stroke="black" stroke-width="2" stroke-miterlimit="10"/>
<path d="M13.9231 15.6538V17.3846" stroke="black" stroke-width="2" stroke-miterlimit="10"/>
<path d="M29.5 25.1731V31.2308" stroke="black" stroke-width="2" stroke-miterlimit="10"/>
<path d="M37.2877 46.7896C36.8619 46.8017 36.4292 46.8077 35.9905 46.8077" stroke="black" stroke-width="2" stroke-miterlimit="10"/>
<path d="M45.4854 45.4561C44.1674 46.0341 41.9615 46.4781 39.3074 46.6832" stroke="black" stroke-width="2" stroke-miterlimit="10"/>
<path d="M24.4159 11.8461C24.0377 11.5225 23.5462 11.3269 23.0097 11.3269C21.8146 11.3269 20.8462 12.2953 20.8462 13.4904C20.8462 14.1481 21.1404 14.7383 21.6034 15.1346L25.0649 18.5961C25.4431 18.9198 25.9347 19.1154 26.4712 19.1154C27.6663 19.1154 28.6347 18.147 28.6347 16.9519C28.6347 16.2942 28.3404 15.704 27.8774 15.3077L24.4159 11.8461Z" stroke="black" stroke-width="2" stroke-miterlimit="10"/>
<path d="M33.827 39.8845H32.0962V41.6153H33.827V39.8845Z" fill="black"/>
<path d="M36.4232 34.6924H34.6924V36.4232H36.4232V34.6924Z" fill="black"/>
<path d="M32.9615 36.4231H31.2307V38.1539H32.9615V36.4231Z" fill="black"/>
<path d="M29.5 21.7114V23.4422" stroke="black" stroke-width="2" stroke-miterlimit="10"/>
</svg>
