<svg width="60" height="60" viewBox="0 0 60 60" fill="none" xmlns="http://www.w3.org/2000/svg">
<path d="M40.6109 12H17.4997C15.9043 12 14.6108 13.2935 14.6108 14.8889V38.7223C14.6108 40.3177 15.9043 41.6112 17.4997 41.6112H21.1123L21.1109 47.389L30.4998 41.6112H47.111C48.7063 41.6112 49.9999 40.3177 49.9999 38.7223V14.8889C49.9999 13.2935 48.7063 12 47.111 12H44.9443" stroke="black" stroke-width="2" stroke-miterlimit="10"/>
<path d="M43.5001 12H42.0557" stroke="black" stroke-width="2" stroke-miterlimit="10"/>
<path d="M32.6671 43.7773H31.2227V45.2218H32.6671V43.7773Z" fill="black"/>
<path d="M36.2779 43.7773H34.8335V45.2218H36.2779V43.7773Z" fill="black"/>
<path d="M39.8893 43.7773H38.4448V45.2218H39.8893V43.7773Z" fill="black"/>
<path d="M18.2218 43.7773H16.7773V45.2218H18.2218V43.7773Z" fill="black"/>
<path d="M12.4444 27.1665H11V28.611H12.4444V27.1665Z" fill="black"/>
<path d="M12.4444 23.5552H11V24.9996H12.4444V23.5552Z" fill="black"/>
<path d="M12.4444 30.7773H11V32.2218H12.4444V30.7773Z" fill="black"/>
<path d="M12.4444 19.9443H11V21.3888H12.4444V19.9443Z" fill="black"/>
<path d="M12.4444 16.3335H11V17.7779H12.4444V16.3335Z" fill="black"/>
<path d="M12.4444 38H11V39.4444H12.4444V38Z" fill="black"/>
<path d="M12.4444 34.3892H11V35.8336H12.4444V34.3892Z" fill="black"/>
<path d="M13.8893 42.334H12.4448V43.7784H13.8893V42.334Z" fill="black"/>
<path d="M22.5552 23.5552H26.1663C26.9644 23.5552 27.6107 24.2016 27.6107 24.9996V34.3885C27.6107 35.1866 26.9644 35.833 26.1663 35.833H22.5552" stroke="black" stroke-width="2" stroke-miterlimit="10"/>
<path d="M25.4444 25.7222H24V27.1666H25.4444V25.7222Z" fill="black"/>
<path d="M27.6108 26.444L32.1262 18.5191C32.3732 18.0763 32.8462 17.7773 33.3886 17.7773C34.1867 17.7773 34.8331 18.4237 34.8331 19.2218C34.8331 19.307 34.8259 19.3901 34.8114 19.4717L34.1253 23.41C34.1159 23.4569 34.1109 23.5053 34.1109 23.5551C34.1109 23.9538 34.4344 24.2774 34.8331 24.2774H39.8887C41.0854 24.2774 42.0553 25.2473 42.0553 26.444C42.0553 26.6145 42.0358 26.7799 41.9983 26.9388L40.5444 33.1607C40.283 34.2787 39.2805 35.1107 38.0831 35.1107H31.9442C31.0067 35.1107 30.0946 34.8067 29.3442 34.2441L27.6108 32.9441" stroke="black" stroke-width="2" stroke-miterlimit="10"/>
</svg>
