<svg width="60" height="60" viewBox="0 0 60 60" fill="none" xmlns="http://www.w3.org/2000/svg">
<path d="M25 39.1063C21.6528 38.9811 18.5863 38.7046 16 38.3159" stroke="black" stroke-width="2" stroke-miterlimit="10"/>
<path d="M29.091 39.1816H27.4546" stroke="black" stroke-width="2" stroke-miterlimit="10"/>
<path d="M14.6845 28.0801C14.6845 28.0801 11.9092 28.5104 11.9092 31.0002" stroke="black" stroke-width="2" stroke-miterlimit="10"/>
<path d="M14.8397 23.7852C14.8397 23.7852 11.0908 24.4307 11.0908 26.0908" stroke="black" stroke-width="2" stroke-miterlimit="10"/>
<path d="M14.4846 27.1963C14.8888 25.6017 16.3255 24.4546 18.0453 24.4546C20.909 24.4546 21.8728 26.5099 22.5453 27.7273C23.6155 29.664 25.5284 32.6364 29.909 32.6364C31.9831 32.6364 33.5908 30.8683 34.9293 29.4889C35.201 29.209 35.6714 29.434 35.6338 29.8219L35.6354 31.6161C35.6363 32.2756 35.8703 32.913 36.2973 33.4153L38.0908 35.5262" stroke="black" stroke-width="2" stroke-miterlimit="10"/>
<path d="M22.5456 27.7271L19.614 30.6103" stroke="black" stroke-width="2" stroke-miterlimit="10"/>
<path d="M24.6555 30.6104L23.4421 33.2809" stroke="black" stroke-width="2" stroke-miterlimit="10"/>
<path d="M50.0976 32.4663C48.4825 34.4177 39.692 35.9092 29.0908 35.9092C18.4896 35.9092 9.69908 34.4177 8.08398 32.4663" stroke="black" stroke-width="2" stroke-miterlimit="10"/>
<path d="M36.3367 33.461C39.9637 31.4834 41.3636 28.1362 41.3636 24.4544C41.3636 22.1954 43.3584 20.3635 46.2727 20.3635C49.75 20.3635 51.1818 23.0136 51.1818 25.2726C51.1818 29.3635 50.4389 31.4949 50.0977 32.466C50.0977 32.466 45.5282 42.1492 42.1818 44.909C40.2296 46.5183 34.513 47.3635 29.0909 47.3635C23.6688 47.3635 17.9522 46.5183 16 44.909C12.6536 42.1492 8.08409 32.466 8.08409 32.466C7.558 31.3877 7 30.3355 7 28.7564C7 25.2726 10.1901 22.0825 11.9091 20.3635C13.5455 18.7271 13.4718 18.6183 13.7925 17.9163C14.2057 17.0139 13.6927 14.6362 15.5475 14.6362C17.2543 14.6362 20.9091 16.379 20.9091 18.8621C20.9091 20.037 19.9944 20.3635 19.2727 20.3635C16.6136 20.3635 14.3636 23.453 14.3636 25.8519C14.3636 26.7584 14.5371 27.6224 14.7899 28.4414C16.1792 32.943 18.4079 35.0204 18.7818 35.3976" stroke="black" stroke-width="2" stroke-miterlimit="10"/>
<path d="M44.6364 26.0908H41.2646" stroke="black" stroke-width="2" stroke-miterlimit="10"/>
<path d="M42.6744 31.4925L40.3982 29.2163" stroke="black" stroke-width="2" stroke-miterlimit="10"/>
<path d="M38.909 18.3558V15.4545C38.909 14.0988 37.8101 13 36.4544 13C35.0987 13 33.9999 14.0988 33.9999 15.4545C33.9999 15.4545 33.932 17.0909 32.3635 17.0909C30.7271 17.0909 29.909 14.6364 28.2726 14.6364C27.7686 14.6364 27.3006 14.7885 26.9111 15.0487" stroke="black" stroke-width="2" stroke-miterlimit="10"/>
<path d="M18.9619 15.8818C20.0067 14.4901 21.4893 13.8184 23.3637 13.8184C26.5268 13.8184 29.091 16.3825 29.091 19.5456C29.091 20.7983 28.6885 21.9576 28.0061 22.9002" stroke="black" stroke-width="2" stroke-miterlimit="10"/>
<path d="M51.1564 24.7499C51.6891 23.9653 52 23.0186 52 22C52 20.0789 50.8897 18.4131 49.2852 17.6072C48.8884 17.4084 48.7273 17.2595 48.7273 16.8119C48.7273 16.465 48.7281 16.0207 48.688 15.7515C48.4728 14.3197 47.0909 13 45.4545 13C43.6218 13 42.3831 14.1463 42.2039 15.8407C42.0869 16.9526 41.2188 17.7954 40.1102 17.9361C38.32 18.1652 37.2727 19.8032 37.2727 21.7087V23.3705" stroke="black" stroke-width="2" stroke-miterlimit="10"/>
<path d="M21.0728 25.5926C21.5997 23.521 23.3416 22 25.4091 22C27.8948 22 29.9091 24.1976 29.9091 26.9091C29.9091 29.3276 28.3063 31.3371 26.1962 31.7437" stroke="black" stroke-width="2" stroke-miterlimit="10"/>
<path d="M29.792 25.7974C30.7648 24.0219 32.6507 22.8184 34.8181 22.8184C37.9812 22.8184 40.5454 25.3825 40.5454 28.5456C40.5454 28.6635 40.5421 28.7805 40.5347 28.8966" stroke="black" stroke-width="2" stroke-miterlimit="10"/>
<path d="M7.99164 25.2222C7.36573 24.3042 7 23.1948 7 22.0002C7 18.8371 9.56418 16.2729 12.7273 16.2729C13.2386 16.2729 13.5749 16.3098 14.0462 16.4358" stroke="black" stroke-width="2" stroke-miterlimit="10"/>
</svg>
