<svg width="60" height="60" viewBox="0 0 60 60" fill="none" xmlns="http://www.w3.org/2000/svg">
<path d="M20.7797 44.9828H10.3983C7.41678 44.9828 5 42.6868 5 39.8542C5 38.9886 5.2259 38.1727 5.62454 37.4579L13.0991 24.0436C14.0052 22.419 15.8024 21.312 17.8729 21.312C19.9433 21.312 21.7406 22.419 22.6466 24.0436L30.1212 37.4571C30.5199 38.1727 30.7458 38.9886 30.7458 39.8542C30.7458 42.6868 28.329 44.9828 25.3475 44.9828" stroke="black" stroke-width="2" stroke-miterlimit="10"/>
<path d="M39.0507 44.9829H19.949" stroke="black" stroke-width="2" stroke-miterlimit="10"/>
<path d="M40.7119 44.9829H42.3729" stroke="black" stroke-width="2" stroke-miterlimit="10"/>
<path d="M11.9582 36.4435L16.1108 30.1313C16.4778 29.5735 17.1298 29.2026 17.8731 29.2026C18.6164 29.2026 19.2692 29.5743 19.6354 30.1321L23.788 36.4443C23.9873 36.7465 24.1019 37.1047 24.1019 37.4874C24.1019 38.5771 23.1726 39.46 22.0256 39.46H13.7206C12.5736 39.46 11.6443 38.5771 11.6443 37.4874C11.6443 37.104 11.7597 36.7465 11.9582 36.4435Z" stroke="black" stroke-width="2" stroke-miterlimit="10"/>
<path d="M16.6269 39.4598C16.6269 36.8433 14.9244 34.7256 13.0881 34.7256" stroke="black" stroke-width="2" stroke-miterlimit="10"/>
<path d="M20.7796 31.8706C20.7796 34.0515 18.4401 36.3034 15.6853 36.3034" stroke="black" stroke-width="2" stroke-miterlimit="10"/>
<path d="M21.8833 23.0088L23.0651 20.8887C23.9712 19.2633 25.7684 18.1562 27.8389 18.1562C29.9093 18.1562 31.7066 19.2633 32.6126 20.8879L40.0872 34.3013C40.4859 35.017 40.7118 35.8328 40.7118 36.6984C40.7118 39.531 38.295 41.8271 35.3135 41.8271" stroke="black" stroke-width="2" stroke-miterlimit="10"/>
<path d="M49.017 41.8267H30.3306" stroke="black" stroke-width="2" stroke-miterlimit="10"/>
<path d="M25.104 28.4545L26.0774 26.9751C26.4436 26.4172 27.0956 26.0464 27.8389 26.0464C28.5822 26.0464 29.235 26.418 29.6012 26.9759L33.7538 33.2881C33.9531 33.5903 34.0677 33.9485 34.0677 34.3312C34.0677 35.4208 33.1383 36.3037 31.9914 36.3037H29.4775" stroke="black" stroke-width="2" stroke-miterlimit="10"/>
<path d="M30.7458 28.7148C30.7458 30.3907 29.4295 32.3081 27.5708 32.8801" stroke="black" stroke-width="2" stroke-miterlimit="10"/>
<path d="M32.3521 20.4711L33.8619 17.7324C34.768 16.107 36.5652 15 38.6357 15C40.7061 15 42.5034 16.107 43.4094 17.7316L50.884 31.1451C51.2827 31.8607 51.5086 32.6766 51.5086 33.5421C51.5086 36.3748 49.0918 38.6708 46.1103 38.6708" stroke="black" stroke-width="2" stroke-miterlimit="10"/>
<path d="M54.0001 38.6709H40.2983" stroke="black" stroke-width="2" stroke-miterlimit="10"/>
<path d="M35.4514 25.9815L36.8741 23.818C37.2403 23.261 37.8923 22.8901 38.6356 22.8901C39.3789 22.8901 40.0317 23.2618 40.3979 23.8196L44.5505 30.1318C44.7498 30.434 44.8644 30.7922 44.8644 31.1749C44.8644 32.2646 43.9351 33.1475 42.7881 33.1475H39.4445" stroke="black" stroke-width="2" stroke-miterlimit="10"/>
<path d="M41.5426 25.5586C41.5426 27.3323 39.6881 29.4382 37.655 29.9353" stroke="black" stroke-width="2" stroke-miterlimit="10"/>
</svg>
